<svg width="50" height="50" viewBox="0 0 1024 1024" reserve-aspect-ratio="xMidYMid meet" xmlns="http://www.w3.org/2000/svg">
  <path fill="#FEFEFE" stroke="#FEFEFE"  d="M672.5 97q4.5-1 5.5 1.5l4 39 4 22q6.5 24.5 23.5 38.5 9.9 8.1 24 12l20 4 28 2 2.5 2.5q.8 4.8-2.5 5.5l-34 4-21 6q-15.2 6.8-25.5 18.5-9.3 11.2-14 27l-5 24-2 24-1 1v12l-2.5 4.5q-5.2 1.3-6.5-1.5l-2-10-2-28-5-25q-6.1-22.4-21.5-35.5l-18-11-15-5-16-3-20-1-5.5-2.5-1-3 1-2.5 9.5-2h11l1-1 19-2 17-5q16.8-6.2 26.5-19.5l7-11 7-20 3-25 1-1v-8l1-1 1-20zm-379 59 3 1h188l14 5 12.5 9 9 13.5 4 16v318l-6 19-13.5 15.5-13 7-12 3h-189q-20.7-3.3-31.5-16.5-9.4-9.6-12-26v-324q4.3-19.2 17.5-29.5l12-7zm-3.5 22-10 4q-9 6-12 18v319l5 12q6 9 19 11h187l9-3 7-5 5-7 3-11V207q-3-2-1-8l-4-9q-6-9-17-12z"/>
  <path fill="#FEFEFE" stroke="#FEFEFE"  d="M378.5 215h13l9 2q12.2 4.3 19.5 13.5 11 11 11 33l-2 11-3 7-13.5 15.5q-11.1 9.4-33 8-17.7-3.3-27.5-14.5-6.5-7.5-10-18-2.8-8.7-1-22 3.9-15.6 14.5-24.5 8.5-8.5 23-11Zm4.5 20-11 4q-8 5-11 16-2 13 4 20t17 10h9l9-4q8-5 10-15 2-15-5-21-6-10-22-10Zm219.5 78q4.8-.7 5.5 2.5l5 27q3.9 10.6 11.5 17.5l9 5 20.5 5 1 5.5-5.5 3.5h-5l-11 3q-8.3 3.2-13.5 9.5-5.7 6.8-8 17l-2 11v9l-1 4-2.5 2.5q-5.5 1-6.5-2.5l-3-24q-3.2-12.8-11.5-20.5l-8-5-23.5-6-1-4.5 1-2.5 20.5-5 12.5-7 8-13.5 4-16v-10zm-228 15 28 1 20 6q22 10 36.5 27.5 12 14.5 18 35l2 10v8l1 1v12l-4 23-6 15q-8.7 17.3-22.5 29.5-14.6 13.4-36 20l-16 3h-20l-20-4-20-9q-12.9-8.1-22.5-19.5-12-13.5-18-33l-4-19v-23q7-40.5 33.5-61.5 10.3-9.2 24-15l15-5zm1.5 21-19 5-20 13q-14 12-21 30l-4 14v9l-1 1 1 1v13l4 16q4 12 12 21 9 12 24 19l12 5 15 3h13l15-3q13-4 23-12 23-17 29-52v-16l-3-15q-5-15-14-25-11-14-28-22l-19-5z"/>
  <path fill="#FEFEFE" stroke="#FEFEFE"  d="M378.5 391q10.3-1.3 17 1 9.1 2.9 14.5 9.5l8 16v12q-2.8 13.2-11.5 20.5-8.3 7.7-25 7-13.3-2.2-20.5-10.5-9.2-8.8-8-28 2.5-14.5 12.5-21.5zm76 216h23l8 2q12.5 4.7 21.5 12-1.1 2.7 1.5 2 11.1 10.4 15.5 27.5-1.3 4.8 1 6v17l-6 20q-6.4 11.6-16.5 19.5-8.7 6.8-21 10l-5 1h-21q-23.5-4-35.5-19.5-8.3-9.8-12-24l-1-23 2-10 5-12 12.5-15.5q10.5-10 28-13Zm7.5 22q-11 2-17 7-11 7-14 23-1 18 6 28t22 14h14l14-6q10-7 13-21v-16l-7-15q-9-14-31-14Zm-253-20h50.5q1.5 2.5 7 1 13 3 20.5 11.5 9.8 9.2 9 29l-2 11-3 6-8.5 9.5-12 6-14 2-3-1-2 1h-2l-2-1h-14l-1.5 2.5v33l1 2.5h-23.5l-.5-.5zm25 22-2 2v29h28l5-2 6-8q1-10-2-14-4-6-11-7zm78-22h47.5q1.5 2.5 7 1l8 2 14.5 9 7 12.5q2.6 7.9 1 20-3.2 13.8-13.5 20.5l-8.5 4.5 27 43-29 .5-3-7.5-19.5-32.5H336v40h-24v-6.5l1-1-1-3 1-2-1-2 1-5-1-5v-10l1-1-1-5v-42l1-4-1-4 1-3-1-4 1-4-1-1zm24 22v31h20l11-3 5-7v-11l-1-2q-4-7-12-8zm201-22h23v47.5l4-3 35.5-44.5 28.5.5-44 54 45 58-28.5.5-40-51-.5 51h-22.5l-.5-.5zm140 0h27.5l.5 2.5 21 55 19 55.5h-24.5l-1.5-1.5q-2.2-11.7-7.5-20.5h-41l-1.5 1.5-6 20.5h-26.5l-.5-1.5zm14 28-14 40 1 1h27l-10-31zm42-28h84.5l.5.5V631h-30v90.5l-.5.5H764v-90.5l-.5-.5H733zM418.5 761q37.8-1.7 52.5 19.5 11.4 12.6 10 38l-3 13-5 10-10.5 11.5-20 10-4 1h-20q-20.9-3.6-31.5-17.5-8.2-9.3-11-24v-21l6-16 7-9.5 10.5-8 8-4zm4.5 20-12 5q-12 7-14 23v7l2 9 9 13 14 6h14l11-5q9-7 12-19v-14l-6-13q-8-13-30-12Zm332.5-20h19l5 1q16.8 4.3 26.5 15.5 12.3 12.2 13 36l-1 1v8l-4 13-11.5 15.5q-8.4 8.6-22 12l-5 1h-19q-21.9-3.6-32.5-18.5l-9-17-2-10v-13q3.8-21.2 17.5-32.5 9.5-9 25-12Zm4.5 20-12 5q-10 7-13 20-2 19 7 28l6 5 12 5h13l13-6q8-7 11-19v-11l-5-13q-8-15-32-14Zm-551-17h59v21h-38v76.5l-.5.5H209zm77 0h47.5q11.4 2.8 18.5 9l7 11.5 2 14-4 14-9.5 10.5q-6.5 4.5-16 6H308v33h-22zm22 19v26h21l6-3 3-5q2-8-1-11-3-6-10-7zm205-19h68v78.5l.5.5H594v38h-19.5l-1.5-1.5v-17l-.5-.5H513v19h-20v-36.5l2.5-.5q1.5-2.5 7-1l2.5-2.5 4-8 3-12v-11l1-1zm21 19v34l-1 1v8l-4 14-2 2 1 1h31l1-1v-57l-1-2zm82-19h22v38h36v-38h21v97.5l-.5.5H674v-41h-36v41h-22z"/>
</svg>